<svg xmlns="http://www.w3.org/2000/svg" viewBox="0 0 48 48" role="img" aria-label="Mikus Drive">
  <defs>
    <linearGradient id="tile" x1="4" y1="4" x2="44" y2="44" gradientUnits="userSpaceOnUse">
      <stop offset="0%" stop-color="#0d84ff"/>
      <stop offset="100%" stop-color="#005a9e"/>
    </linearGradient>
    <filter id="shadow" x="-10%" y="-10%" width="120%" height="120%">
      <feDropShadow dx="0" dy="1" stdDeviation="1.2" flood-color="#003b6f" flood-opacity="0.35"/>
    </filter>
  </defs>

  <rect x="2" y="2" width="44" height="44" rx="11" fill="url(#tile)"/>

  <g filter="url(#shadow)">
    <rect x="8" y="11" width="32" height="28" rx="4" fill="#ffffff"/>
    <rect x="8" y="11" width="32" height="9" rx="4" fill="#e8f3fc"/>
    <rect x="8" y="17" width="32" height="3" fill="#e8f3fc"/>
    <circle cx="13.5" cy="15.5" r="1.6" fill="#0078d4"/>
    <circle cx="18" cy="15.5" r="1.6" fill="#66b3ff"/>
    <circle cx="22.5" cy="15.5" r="1.6" fill="#b3d9ff"/>
  </g>

  <path fill="#fbbc04" d="M14 24.5h9.5l2.2 2.2h12.3v2.2H14z"/>
  <path fill="#34a853" d="M14 28.9h26.5v8.6H14z"/>
  <path fill="#4285f4" d="M14 28.9h13.2v8.6H14z"/>
  <path fill="#ea4335" d="M27.2 28.9h13.3v8.6H27.2z"/>

  <circle cx="33.5" cy="33" r="5.2" fill="#ffffff" stroke="#0078d4" stroke-width="1.6"/>
  <circle cx="37.8" cy="33" r="5.2" fill="#ffffff" stroke="#34a853" stroke-width="1.6"/>
  <circle cx="35.6" cy="31.2" r="2.1" fill="#0078d4"/>
  <circle cx="39.2" cy="31.2" r="2.1" fill="#34a853"/>
</svg>
